# xmcd
#
# Track frame offsets: 
#        150
#        15077
#        29749
#        44777
#        58857
#        74223
#        89168
#        103525
#        117393
#        130641
#        144274
#        156338
#        169725
#        182584
#        195092
#        207308
#        220035
#        234624
#        248922
#        261296
#        273792
#
# Disc length: 3841 seconds
#
# Revision: 4
# Processed by: cddbd v1.5.2PL0 Copyright (c) Steve Scherf et al.
# Submitted via: ExactAudioCopyFreeDBPlugin 1.0
#
DISCID=370eff15
DTITLE=Big Joe Williams - The Ultimate Jazz Archive 46
DYEAR=2001
DGENRE=Blues
TTITLE0=Little Leg Woman
TTITLE1=Providence Help the Poor People
TTITLE2=49 Highway Blues
TTITLE3=Stepfather Blues
TTITLE4=Baby Please Don't Go
TTITLE5=Wild Cow Blues
TTITLE6=Stack O' Dollars
TTITLE7=I Know You Gonna Miss Me
TTITLE8=Brother James
TTITLE9=Rootin' Ground Hog
TTITLE10=I Won't Be in Hard Luck No More
TTITLE11=Meet Me Around the Corner
TTITLE12=Crawlin' Kingsnake
TTITLE13=I'm Getting Wild About Her
TTITLE14=Peach Orchard Mama
TTITLE15=Please Don't Go
TTITLE16=Break 'em on Down
TTITLE17=Someday Baby
TTITLE18=His Spirit Lives On
TTITLE19=Vitamin A
TTITLE20=Somebody's Been Worryin'
EXTD=
EXTT0=
EXTT1=
EXTT2=
EXTT3=
EXTT4=
EXTT5=
EXTT6=
EXTT7=
EXTT8=
EXTT9=
EXTT10=
EXTT11=
EXTT12=
EXTT13=
EXTT14=
EXTT15=
EXTT16=
EXTT17=
EXTT18=
EXTT19=
EXTT20=
PLAYORDER=
